<mxfile host="app.diagrams.net" agent="Mozilla/5.0 (Macintosh; Intel Mac OS X 10_15_7) AppleWebKit/537.36 (KHTML, like Gecko) Chrome/131.0.0.0 Safari/537.36" version="24.8.6">
  <diagram name="Page-1" id="-plNm5Fd_cRwq0LefcVK">
    <mxGraphModel dx="1920" dy="732" grid="1" gridSize="10" guides="1" tooltips="1" connect="1" arrows="1" fold="1" page="1" pageScale="1" pageWidth="827" pageHeight="1169" math="0" shadow="0">
      <root>
        <mxCell id="0" />
        <mxCell id="1" parent="0" />
        <mxCell id="W8w8hRc0xZXnO5vD6-S_-1" value="Web Application&lt;div&gt;(Real Estate Investment Assistant)&lt;/div&gt;" style="whiteSpace=wrap;html=1;aspect=fixed;" vertex="1" parent="1">
          <mxGeometry x="-70" y="195" width="150" height="150" as="geometry" />
        </mxCell>
        <mxCell id="W8w8hRc0xZXnO5vD6-S_-2" value="Firebase" style="shape=cylinder3;whiteSpace=wrap;html=1;boundedLbl=1;backgroundOutline=1;size=15;" vertex="1" parent="1">
          <mxGeometry x="190" y="80" width="130" height="100" as="geometry" />
        </mxCell>
        <mxCell id="W8w8hRc0xZXnO5vD6-S_-3" value="PostgreSQL" style="shape=cylinder3;whiteSpace=wrap;html=1;boundedLbl=1;backgroundOutline=1;size=15;" vertex="1" parent="1">
          <mxGeometry x="190" y="330" width="110" height="120" as="geometry" />
        </mxCell>
        <mxCell id="W8w8hRc0xZXnO5vD6-S_-5" value="APIs&lt;div&gt;Zoopla, Property Data API&lt;/div&gt;" style="rounded=0;whiteSpace=wrap;html=1;" vertex="1" parent="1">
          <mxGeometry x="380" y="220" width="200" height="100" as="geometry" />
        </mxCell>
        <mxCell id="W8w8hRc0xZXnO5vD6-S_-6" value="" style="endArrow=classic;startArrow=classic;html=1;rounded=0;exitX=0.5;exitY=0;exitDx=0;exitDy=0;exitPerimeter=0;entryX=0.427;entryY=1.002;entryDx=0;entryDy=0;entryPerimeter=0;" edge="1" parent="1" source="W8w8hRc0xZXnO5vD6-S_-3" target="W8w8hRc0xZXnO5vD6-S_-2">
          <mxGeometry width="50" height="50" relative="1" as="geometry">
            <mxPoint x="244.47" y="320" as="sourcePoint" />
            <mxPoint x="244.47" y="190" as="targetPoint" />
          </mxGeometry>
        </mxCell>
        <mxCell id="W8w8hRc0xZXnO5vD6-S_-7" value="" style="endArrow=classic;startArrow=classic;html=1;rounded=0;entryX=1.007;entryY=0.901;entryDx=0;entryDy=0;entryPerimeter=0;exitX=0;exitY=0;exitDx=0;exitDy=82.5;exitPerimeter=0;" edge="1" parent="1" source="W8w8hRc0xZXnO5vD6-S_-3" target="W8w8hRc0xZXnO5vD6-S_-1">
          <mxGeometry width="50" height="50" relative="1" as="geometry">
            <mxPoint x="160" y="400" as="sourcePoint" />
            <mxPoint x="90" y="340" as="targetPoint" />
          </mxGeometry>
        </mxCell>
        <mxCell id="W8w8hRc0xZXnO5vD6-S_-8" value="" style="endArrow=classic;startArrow=classic;html=1;rounded=0;entryX=1.022;entryY=0.05;entryDx=0;entryDy=0;entryPerimeter=0;exitX=0;exitY=0;exitDx=0;exitDy=32.5;exitPerimeter=0;" edge="1" parent="1" source="W8w8hRc0xZXnO5vD6-S_-2" target="W8w8hRc0xZXnO5vD6-S_-1">
          <mxGeometry width="50" height="50" relative="1" as="geometry">
            <mxPoint x="170" y="130" as="sourcePoint" />
            <mxPoint x="100" y="190" as="targetPoint" />
          </mxGeometry>
        </mxCell>
        <mxCell id="W8w8hRc0xZXnO5vD6-S_-9" value="" style="endArrow=classic;startArrow=classic;html=1;rounded=0;exitX=1;exitY=0.5;exitDx=0;exitDy=0;entryX=0;entryY=0.5;entryDx=0;entryDy=0;" edge="1" parent="1" source="W8w8hRc0xZXnO5vD6-S_-1" target="W8w8hRc0xZXnO5vD6-S_-5">
          <mxGeometry width="50" height="50" relative="1" as="geometry">
            <mxPoint x="110" y="269.47" as="sourcePoint" />
            <mxPoint x="350" y="269.47" as="targetPoint" />
          </mxGeometry>
        </mxCell>
      </root>
    </mxGraphModel>
  </diagram>
</mxfile>
